<?xml version="1.0" encoding="UTF-8" standalone="no"?>
<!-- Created with Inkscape (http://www.inkscape.org/) -->

<svg
   xmlns:dc="http://purl.org/dc/elements/1.1/"
   xmlns:cc="http://creativecommons.org/ns#"
   xmlns:rdf="http://www.w3.org/1999/02/22-rdf-syntax-ns#"
   xmlns:svg="http://www.w3.org/2000/svg"
   xmlns="http://www.w3.org/2000/svg"
   xmlns:sodipodi="http://sodipodi.sourceforge.net/DTD/sodipodi-0.dtd"
   xmlns:inkscape="http://www.inkscape.org/namespaces/inkscape"
   width="695.09698"
   height="695.66736"
   viewBox="0 0 183.91107 184.06198"
   version="1.1"
   id="svg8"
   sodipodi:docname="LightSwitch.svg"
   inkscape:version="0.92.1 r15371">
  <defs
     id="defs2" />
  <sodipodi:namedview
     id="base"
     pagecolor="#ffffff"
     bordercolor="#666666"
     borderopacity="1.0"
     inkscape:pageopacity="0.0"
     inkscape:pageshadow="2"
     inkscape:zoom="1"
     inkscape:cx="289.76889"
     inkscape:cy="353.02323"
     inkscape:document-units="mm"
     inkscape:current-layer="layer1"
     showgrid="false"
     inkscape:snap-page="false"
     inkscape:window-width="1920"
     inkscape:window-height="1017"
     inkscape:window-x="-8"
     inkscape:window-y="-8"
     inkscape:window-maximized="1"
     fit-margin-top="0"
     fit-margin-left="0"
     fit-margin-right="0"
     fit-margin-bottom="0"
     units="px" />
  <metadata
     id="metadata5">
    <rdf:RDF>
      <cc:Work
         rdf:about="">
        <dc:format>image/svg+xml</dc:format>
        <dc:type
           rdf:resource="http://purl.org/dc/dcmitype/StillImage" />
        <dc:title />
      </cc:Work>
    </rdf:RDF>
  </metadata>
  <g
     inkscape:label="Layer 1"
     inkscape:groupmode="layer"
     id="layer1"
     transform="translate(-54.918692,34.444382)">
    <path
       style="opacity:1;fill:#000000;stroke-width:0.46429718"
       d="M 108.33756,24.910289 V 149.61761 H 116.05197 V 32.270121 H 177.69649 V 149.61761 H 185.4109 V 24.910289 Z"
       id="rect4487"
       inkscape:connector-curvature="0" />
    <path
       style="opacity:1;fill:#000000;fill-opacity:1;stroke:#000000;stroke-width:0;stroke-linecap:butt;stroke-miterlimit:4;stroke-dasharray:none;stroke-opacity:1;paint-order:normal"
       d="M 144.49298,-34.444382 H 149.25548 C 149.25548,-34.444382 149.25548,-34.444382 149.25548,-34.444382 V -1.106884 C 149.25548,-1.106884 149.25548,-1.106884 149.25548,-1.106884 H 144.49298 C 144.49298,-1.106884 144.49298,-1.106884 144.49298,-1.106884 V -34.444382 C 144.49298,-34.444382 144.49298,-34.444382 144.49298,-34.444382 Z"
       id="rect6820" />
    <path
       transform="rotate(38.915309)"
       style="opacity:1;fill:#000000;fill-opacity:1;stroke:#000000;stroke-width:0;stroke-linecap:butt;stroke-miterlimit:4;stroke-dasharray:none;stroke-opacity:1;paint-order:normal"
       d="M 159.54051,-144.05649 H 164.30301 C 164.30301,-144.05649 164.30301,-144.05649 164.30301,-144.05649 V -110.71899 C 164.30301,-110.71899 164.30301,-110.71899 164.30301,-110.71899 H 159.54051 C 159.54051,-110.71899 159.54051,-110.71899 159.54051,-110.71899 V -144.05649 C 159.54051,-144.05649 159.54051,-144.05649 159.54051,-144.05649 Z"
       id="rect6831" />
    <path
       transform="rotate(-40.085383)"
       style="opacity:1;fill:#000000;fill-opacity:1;stroke:#000000;stroke-width:0;stroke-linecap:butt;stroke-miterlimit:4;stroke-dasharray:none;stroke-opacity:1;paint-order:normal"
       d="M 62.062656,40.964729 H 66.825156 C 66.825156,40.964729 66.825156,40.964729 66.825156,40.964729 V 74.302227 C 66.825156,74.302227 66.825156,74.302227 66.825156,74.302227 H 62.062656 C 62.062656,74.302227 62.062656,74.302227 62.062656,74.302227 V 40.964729 C 62.062656,40.964729 62.062656,40.964729 62.062656,40.964729 Z"
       id="rect6833" />
    <path
       inkscape:connector-curvature="0"
       style="opacity:1;fill:#000000;fill-opacity:1;stroke:#000000;stroke-width:0;stroke-linecap:butt;stroke-miterlimit:4;stroke-dasharray:none;stroke-opacity:1;paint-order:normal"
       d="M 238.8036,46.955733 L 238.82977,51.718161 C 238.82977,51.718161 238.82977,51.718161 238.82977,51.718161 L 205.49277,51.901331 C 205.49277,51.901331 205.49277,51.901331 205.49277,51.901331 L 205.46661,47.138903 C 205.46661,47.138903 205.46661,47.138903 205.46661,47.138903 L 238.8036,46.955733 C 238.8036,46.955733 238.8036,46.955733 238.8036,46.955733 Z"
       id="rect6835" />
    <path
       inkscape:connector-curvature="0"
       style="opacity:1;fill:#000000;fill-opacity:1;stroke:#000000;stroke-width:0;stroke-linecap:butt;stroke-miterlimit:4;stroke-dasharray:none;stroke-opacity:1;paint-order:normal"
       d="M 88.255686,47.484901 L 88.281854,52.247329 C 88.281854,52.247329 88.281854,52.247329 88.281854,52.247329 L 54.944859,52.430499 C 54.944859,52.430499 54.944859,52.430499 54.944859,52.430499 L 54.918692,47.668071 C 54.918692,47.668071 54.918692,47.668071 54.918692,47.668071 L 88.255686,47.484901 C 88.255686,47.484901 88.255686,47.484901 88.255686,47.484901 Z"
       id="rect6837" />
  </g>
</svg>
