<?xml version="1.0" encoding="UTF-8" standalone="no"?>
<!-- Created with Inkscape (http://www.inkscape.org/) -->

<svg
   xmlns:dc="http://purl.org/dc/elements/1.1/"
   xmlns:cc="http://creativecommons.org/ns#"
   xmlns:rdf="http://www.w3.org/1999/02/22-rdf-syntax-ns#"
   xmlns:svg="http://www.w3.org/2000/svg"
   xmlns="http://www.w3.org/2000/svg"
   xmlns:sodipodi="http://sodipodi.sourceforge.net/DTD/sodipodi-0.dtd"
   xmlns:inkscape="http://www.inkscape.org/namespaces/inkscape"
   width="695.09698"
   height="695.66736"
   viewBox="0 0 183.91107 184.06198"
   version="1.1"
   id="svg8"
   sodipodi:docname="LightSwitchWhite.svg"
   inkscape:version="0.92.1 r15371">
  <defs
     id="defs2" />
  <sodipodi:namedview
     id="base"
     pagecolor="#ffffff"
     bordercolor="#666666"
     borderopacity="1.0"
     inkscape:pageopacity="0.0"
     inkscape:pageshadow="2"
     inkscape:zoom="1"
     inkscape:cx="270.14196"
     inkscape:cy="326.64946"
     inkscape:document-units="mm"
     inkscape:current-layer="layer1"
     showgrid="false"
     inkscape:snap-page="false"
     inkscape:window-width="1920"
     inkscape:window-height="1017"
     inkscape:window-x="-8"
     inkscape:window-y="-8"
     inkscape:window-maximized="1"
     fit-margin-top="0"
     fit-margin-left="0"
     fit-margin-right="0"
     fit-margin-bottom="0"
     units="px" />
  <metadata
     id="metadata5">
    <rdf:RDF>
      <cc:Work
         rdf:about="">
        <dc:format>image/svg+xml</dc:format>
        <dc:type
           rdf:resource="http://purl.org/dc/dcmitype/StillImage" />
        <dc:title></dc:title>
      </cc:Work>
    </rdf:RDF>
  </metadata>
  <g
     inkscape:label="Layer 1"
     inkscape:groupmode="layer"
     id="layer1"
     transform="translate(-54.918692,34.444382)">
    <path
       style="opacity:1;fill:#ffffff;stroke-width:0.46429718;stroke:#ffffff;stroke-opacity:1"
       d="M 108.33756,24.910289 V 149.61761 H 116.05197 V 32.270121 H 177.69649 V 149.61761 H 185.4109 V 24.910289 Z"
       id="rect4487"
       inkscape:connector-curvature="0" />
    <path
       inkscape:connector-curvature="0"
       style="opacity:1;fill:#ffffff;fill-opacity:1;stroke:#ffffff;stroke-width:0;stroke-linecap:butt;stroke-miterlimit:4;stroke-dasharray:none;stroke-opacity:1;paint-order:normal"
       d="M 144.49298,-34.444382 H 149.25548 C 149.25548,-34.444382 149.25548,-34.444382 149.25548,-34.444382 V -1.106884 C 149.25548,-1.106884 149.25548,-1.106884 149.25548,-1.106884 H 144.49298 C 144.49298,-1.106884 144.49298,-1.106884 144.49298,-1.106884 V -34.444382 C 144.49298,-34.444382 144.49298,-34.444382 144.49298,-34.444382 Z"
       id="rect6820" />
    <path
       inkscape:connector-curvature="0"
       style="opacity:1;fill:#ffffff;fill-opacity:1;stroke:#ffffff;stroke-width:0;stroke-linecap:butt;stroke-miterlimit:4;stroke-dasharray:none;stroke-opacity:1;paint-order:normal"
       d="M 214.62664,-11.868084 L 218.33223,-8.8764194 C 218.33223,-8.8764194 218.33223,-8.8764194 218.33223,-8.8764194 L 197.39058,17.062667 C 197.39058,17.062667 197.39058,17.062667 197.39058,17.062667 L 193.68499,14.071003 C 193.68499,14.071003 193.68499,14.071003 193.68499,14.071003 L 214.62664,-11.868084 C 214.62664,-11.868084 214.62664,-11.868084 214.62664,-11.868084 Z"
       id="rect6831" />
    <path
       inkscape:connector-curvature="0"
       style="opacity:1;fill:#ffffff;fill-opacity:1;stroke:#ffffff;stroke-width:0;stroke-linecap:butt;stroke-miterlimit:4;stroke-dasharray:none;stroke-opacity:1;paint-order:normal"
       d="M 73.861606,-8.6223825 L 77.505326,-11.689092 C 77.505326,-11.689092 77.505326,-11.689092 77.505326,-11.689092 L 98.97229,13.816951 C 98.97229,13.816951 98.97229,13.816951 98.97229,13.816951 L 95.32857,16.883661 C 95.32857,16.883661 95.32857,16.883661 95.32857,16.883661 L 73.861606,-8.6223825 C 73.861606,-8.6223825 73.861606,-8.6223825 73.861606,-8.6223825 Z"
       id="rect6833" />
    <path
       inkscape:connector-curvature="0"
       style="opacity:1;fill:#ffffff;fill-opacity:1;stroke:#ffffff;stroke-width:0;stroke-linecap:butt;stroke-miterlimit:4;stroke-dasharray:none;stroke-opacity:1;paint-order:normal"
       d="M 238.8036,46.955733 L 238.82977,51.718161 C 238.82977,51.718161 238.82977,51.718161 238.82977,51.718161 L 205.49277,51.901331 C 205.49277,51.901331 205.49277,51.901331 205.49277,51.901331 L 205.46661,47.138903 C 205.46661,47.138903 205.46661,47.138903 205.46661,47.138903 L 238.8036,46.955733 C 238.8036,46.955733 238.8036,46.955733 238.8036,46.955733 Z"
       id="rect6835" />
    <path
       inkscape:connector-curvature="0"
       style="opacity:1;fill:#ffffff;fill-opacity:1;stroke:#ffffff;stroke-width:0;stroke-linecap:butt;stroke-miterlimit:4;stroke-dasharray:none;stroke-opacity:1;paint-order:normal"
       d="M 88.255686,47.484901 L 88.281854,52.247329 C 88.281854,52.247329 88.281854,52.247329 88.281854,52.247329 L 54.944859,52.430499 C 54.944859,52.430499 54.944859,52.430499 54.944859,52.430499 L 54.918692,47.668071 C 54.918692,47.668071 54.918692,47.668071 54.918692,47.668071 L 88.255686,47.484901 C 88.255686,47.484901 88.255686,47.484901 88.255686,47.484901 Z"
       id="rect6837" />
  </g>
</svg>
